<svg width="8" height="6" viewBox="0 0 8 6" fill="none" xmlns="http://www.w3.org/2000/svg">
<path d="M6.80612 9.53674e-07H1.19388C0.972314 -0.000322819 0.755188 0.0627007 0.567632 0.181777C0.380077 0.300853 0.229762 0.471113 0.134086 0.67285C0.0220858 0.91221 -0.0210519 1.17852 0.00958809 1.44142C0.040228 1.70433 0.143413 1.95326 0.307385 2.15985L3.11351 5.59137C3.22363 5.71964 3.35978 5.82251 3.51273 5.89301C3.66568 5.96351 3.83186 6 4 6C4.16814 6 4.33432 5.96351 4.48727 5.89301C4.64022 5.82251 4.77637 5.71964 4.88649 5.59137L7.69261 2.15985C7.85659 1.95326 7.95977 1.70433 7.99041 1.44142C8.02105 1.17852 7.97791 0.91221 7.86591 0.67285C7.77024 0.471113 7.61992 0.300853 7.43237 0.181777C7.24481 0.0627007 7.02769 -0.000322819 6.80612 9.53674e-07Z" fill="#F3D4A6"/>
</svg>
