<svg width="19" height="14" viewBox="0 0 19 14" fill="none" xmlns="http://www.w3.org/2000/svg">
<g clip-path="url(#clip0_1_173)">
<path d="M3.5 14C2.66933 14 1.96167 13.7077 1.377 13.123C0.792333 12.5383 0.5 11.8307 0.5 11V3C0.5 2.16933 0.792333 1.46167 1.377 0.877C1.96167 0.292333 2.66933 0 3.5 0H15.5C16.3307 0 17.0383 0.292333 17.623 0.877C18.2077 1.46167 18.5 2.16933 18.5 3V11C18.5 11.8307 18.2077 12.5383 17.623 13.123C17.0383 13.7077 16.3307 14 15.5 14H3.5ZM3.5 3.5H15.5C15.8927 3.5 16.2587 3.56733 16.598 3.702C16.9373 3.83667 17.238 4.034 17.5 4.294V3C17.5 2.45 17.3043 1.97933 16.913 1.588C16.5217 1.19667 16.0507 1.00067 15.5 1H3.5C2.95 1 2.47933 1.196 2.088 1.588C1.69667 1.98 1.50067 2.45067 1.5 3V4.294C1.76133 4.034 2.062 3.83667 2.402 3.702C2.742 3.56733 3.108 3.5 3.5 3.5ZM1.534 6.23L12.871 8.989C12.9957 9.02233 13.1233 9.02533 13.254 8.998C13.3847 8.97133 13.4973 8.91433 13.592 8.827L17.317 5.677C17.1723 5.32433 16.9357 5.04 16.607 4.824C16.2783 4.608 15.9093 4.5 15.5 4.5H3.5C2.98933 4.5 2.54933 4.66367 2.18 4.991C1.81 5.319 1.595 5.73233 1.535 6.231" fill="#FBDB9F"/>
</g>
<defs>
<clipPath id="clip0_1_173">
<rect width="18" height="14" fill="white" transform="translate(0.5)"/>
</clipPath>
</defs>
</svg>
