<svg width="16" height="16" viewBox="0 0 16 16" fill="none" xmlns="http://www.w3.org/2000/svg">
<path d="M7.99999 3.94699C8.16972 3.94699 8.33251 3.87956 8.45253 3.75954C8.57256 3.63952 8.63999 3.47673 8.63999 3.30699C8.63999 3.13725 8.57256 2.97447 8.45253 2.85444C8.33251 2.73442 8.16972 2.66699 7.99999 2.66699C7.83025 2.66699 7.66746 2.73442 7.54744 2.85444C7.42741 2.97447 7.35999 3.13725 7.35999 3.30699C7.35999 3.47673 7.42741 3.63952 7.54744 3.75954C7.66746 3.87956 7.83025 3.94699 7.99999 3.94699ZM7.99999 8.64033C8.16972 8.64033 8.33251 8.5729 8.45253 8.45287C8.57256 8.33285 8.63999 8.17006 8.63999 8.00033C8.63999 7.83059 8.57256 7.6678 8.45253 7.54778C8.33251 7.42775 8.16972 7.36033 7.99999 7.36033C7.83025 7.36033 7.66746 7.42775 7.54744 7.54778C7.42741 7.6678 7.35999 7.83059 7.35999 8.00033C7.35999 8.17006 7.42741 8.33285 7.54744 8.45287C7.66746 8.5729 7.83025 8.64033 7.99999 8.64033ZM7.99999 13.3337C8.16972 13.3337 8.33251 13.2662 8.45253 13.1462C8.57256 13.0262 8.63999 12.8634 8.63999 12.6937C8.63999 12.5239 8.57256 12.3611 8.45253 12.2411C8.33251 12.1211 8.16972 12.0537 7.99999 12.0537C7.83025 12.0537 7.66746 12.1211 7.54744 12.2411C7.42741 12.3611 7.35999 12.5239 7.35999 12.6937C7.35999 12.8634 7.42741 13.0262 7.54744 13.1462C7.66746 13.2662 7.83025 13.3337 7.99999 13.3337Z" fill="#171826" stroke="#171826" stroke-width="1.5" stroke-linecap="round" stroke-linejoin="round"/>
</svg>
