<svg width="24" height="24" viewBox="0 0 24 24" fill="none" xmlns="http://www.w3.org/2000/svg">
<path d="M9.00004 14.25C9.66526 14.2498 10.3117 14.4708 10.8376 14.8781C11.3636 15.2854 11.7392 15.8559 11.9055 16.5H20.25C20.4375 16.4997 20.6182 16.5695 20.7567 16.6958C20.8952 16.822 20.9814 16.9956 20.9984 17.1822C21.0153 17.3689 20.9617 17.5551 20.8482 17.7042C20.7347 17.8534 20.5695 17.9546 20.385 17.988L20.25 18L11.9055 18.0015C11.7398 18.6461 11.3644 19.2174 10.8384 19.6252C10.3124 20.0331 9.66565 20.2545 9.00004 20.2545C8.33443 20.2545 7.68772 20.0331 7.16171 19.6252C6.63571 19.2174 6.26029 18.6461 6.09454 18.0015L3.75004 18C3.56262 18.0003 3.38186 17.9305 3.24336 17.8042C3.10487 17.678 3.01866 17.5044 3.00173 17.3178C2.98479 17.1311 3.03836 16.9449 3.15187 16.7958C3.26538 16.6466 3.43062 16.5454 3.61504 16.512L3.75004 16.5H6.09454C6.26084 15.8559 6.63651 15.2854 7.16246 14.8781C7.68841 14.4708 8.33482 14.2498 9.00004 14.25ZM9.00004 15.75C8.60222 15.75 8.22068 15.908 7.93938 16.1893C7.65808 16.4706 7.50004 16.8522 7.50004 17.25C7.50004 17.6478 7.65808 18.0294 7.93938 18.3107C8.22068 18.592 8.60222 18.75 9.00004 18.75C9.39786 18.75 9.7794 18.592 10.0607 18.3107C10.342 18.0294 10.5 17.6478 10.5 17.25C10.5 16.8522 10.342 16.4706 10.0607 16.1893C9.7794 15.908 9.39786 15.75 9.00004 15.75ZM15 3.75C15.6653 3.74983 16.3117 3.97076 16.8376 4.37806C17.3636 4.78535 17.7392 5.35591 17.9055 6H20.25C20.4375 5.99966 20.6182 6.06949 20.7567 6.19576C20.8952 6.32203 20.9814 6.49558 20.9984 6.68223C21.0153 6.86889 20.9617 7.05511 20.8482 7.20425C20.7347 7.35338 20.5695 7.45461 20.385 7.488L20.25 7.5L17.9055 7.5015C17.7398 8.14614 17.3644 8.71736 16.8384 9.12523C16.3124 9.5331 15.6657 9.75446 15 9.75446C14.3344 9.75446 13.6877 9.5331 13.1617 9.12523C12.6357 8.71736 12.2603 8.14614 12.0945 7.5015L3.75004 7.5C3.56262 7.50034 3.38186 7.43051 3.24336 7.30424C3.10487 7.17797 3.01866 7.00442 3.00173 6.81777C2.98479 6.63111 3.03836 6.44489 3.15187 6.29575C3.26538 6.14662 3.43062 6.04539 3.61504 6.012L3.75004 6H12.0945C12.2608 5.35591 12.6365 4.78535 13.1625 4.37806C13.6884 3.97076 14.3348 3.74983 15 3.75ZM15 5.25C14.6022 5.25 14.2207 5.40804 13.9394 5.68934C13.6581 5.97064 13.5 6.35218 13.5 6.75C13.5 7.14782 13.6581 7.52936 13.9394 7.81066C14.2207 8.09196 14.6022 8.25 15 8.25C15.3979 8.25 15.7794 8.09196 16.0607 7.81066C16.342 7.52936 16.5 7.14782 16.5 6.75C16.5 6.35218 16.342 5.97064 16.0607 5.68934C15.7794 5.40804 15.3979 5.25 15 5.25Z" fill="#FBDB9F"/>
</svg>
