<svg width="21" height="20" viewBox="0 0 21 20" fill="none" xmlns="http://www.w3.org/2000/svg">
<g clip-path="url(#clip0_23_156)">
<path fill-rule="evenodd" clip-rule="evenodd" d="M10.2346 0.0299143C10.4011 0.0474044 10.7163 0.0801509 10.9349 0.102638C13.0596 0.321302 14.5662 1.27856 15.4023 2.94114C15.6094 3.35314 15.8694 4.14633 15.9471 4.60375C16.2459 6.36151 15.4996 8.22325 13.7931 9.97691C12.5042 11.3015 11.4397 11.8427 9.25026 12.2864C7.85863 12.5685 6.39276 12.451 4.93832 11.941C3.797 11.5408 2.78405 10.714 2.37587 9.8496C1.86514 8.76798 1.85734 7.64169 2.35411 6.7062C2.42554 6.57165 2.47801 6.46156 2.47067 6.46156C2.46332 6.46156 2.39049 6.55102 2.30879 6.66031C1.98628 7.09181 1.63758 7.92043 1.48441 8.61943C1.38761 9.06122 1.38647 10.4476 1.48244 11.0671C1.82906 13.3046 3.09437 15.1639 5.16175 16.4736C5.34911 16.5923 5.76221 16.8175 6.07972 16.9741C6.39723 17.1307 6.65704 17.271 6.65704 17.2861C6.65704 17.301 6.42282 17.593 6.1365 17.9349C5.62312 18.548 4.93355 19.2701 4.46991 19.6802C4.07903 20.0259 4.17943 20.0707 5.09206 19.9578C6.6751 19.7618 8.11205 19.2357 9.41101 18.3766L9.87457 18.07L10.9253 18.0648C12.0776 18.0591 12.4096 18.0193 13.3199 17.7774C15.8107 17.1155 17.993 15.2967 19.122 12.9416C20.1664 10.7629 20.2567 8.20307 19.3685 5.95049C18.5315 3.82742 16.9822 2.18645 14.7376 1.04555C13.3454 0.337845 11.8016 -0.0279315 10.2953 -0.0069586L9.93169 -0.00192361L10.2346 0.0299143ZM9.15501 0.217081C8.31613 0.267734 7.39654 0.461828 6.71439 0.73228C5.09895 1.37275 3.8034 2.52312 3.15941 3.8889C2.96505 4.30105 2.81665 4.738 2.8517 4.79474C2.91852 4.90286 3.2341 4.75435 3.92507 4.28958C4.66609 3.79115 5.13544 3.56476 5.98151 3.29772C6.98954 2.97956 7.93809 2.84771 9.02126 2.87512C10.4034 2.91013 11.4044 3.15992 12.6953 3.79202C13.7311 4.29923 14.565 4.8984 15.2864 5.65388L15.6952 6.08201L15.72 5.67553C15.7586 5.04157 15.6785 4.54474 15.4008 3.69798C14.8429 1.99675 13.3201 0.729895 11.3505 0.328532C10.6875 0.193382 10.0683 0.16196 9.15501 0.217081ZM5.31311 4.85528C5.14653 4.88375 4.93359 4.93285 4.83989 4.96438C4.73563 4.99948 4.7136 5.01451 4.7831 5.00311C4.84557 4.99289 5.12666 4.97396 5.40775 4.96105C5.81377 4.94243 5.98496 4.95102 6.24061 5.003C8.30273 5.42204 9.56312 7.15992 9.76872 9.86769C9.81437 10.4694 9.77883 11.0162 9.65484 11.6196C9.6174 11.8018 9.60165 11.9509 9.61986 11.9509C9.69535 11.9509 10.4487 11.7503 10.771 11.6443C11.2236 11.4955 12.0057 11.1056 12.4113 10.8265L12.7331 10.6052L12.7261 10.3108C12.7115 9.70018 12.3989 8.78028 11.9498 8.02639C10.9111 6.28276 9.20377 5.14019 7.20597 4.85187C6.7348 4.78388 5.72041 4.7857 5.31311 4.85528ZM4.56781 5.04884C4.59511 5.05978 4.62778 5.05842 4.64034 5.04585C4.65291 5.03328 4.63058 5.02435 4.59068 5.02598C4.54657 5.02779 4.5376 5.03677 4.56781 5.04884ZM4.73446 5.19512C4.32976 5.26906 4.06313 5.35272 3.7231 5.51248C3.39863 5.66489 2.87896 6.06088 2.69259 6.29772C2.04852 7.11627 1.9627 8.28306 2.45886 9.47489C2.59306 9.79732 2.93987 10.3419 3.01097 10.3419C3.03569 10.3419 3.12692 10.2321 3.21365 10.0979C3.91693 9.00981 5.29054 8.35443 6.86787 8.35443C7.77368 8.35443 8.68157 8.56696 9.23603 8.90881C9.385 9.00065 9.51269 9.07 9.51977 9.06289C9.54426 9.03839 9.30432 8.19808 9.19234 7.91623C8.9239 7.24048 8.65295 6.7994 8.23762 6.36215C7.63186 5.72448 6.85394 5.30964 6.01347 5.17619C5.68471 5.12399 5.07438 5.13304 4.73446 5.19512Z" fill="#FBDB9F"/>
</g>
<defs>
<clipPath id="clip0_23_156">
<rect width="20" height="20" fill="white" transform="translate(0.5)"/>
</clipPath>
</defs>
</svg>
