<svg version="1.1" xmlns="http://www.w3.org/2000/svg" xmlns:xlink="http://www.w3.org/1999/xlink" width="512.000000pt" height="512.000000pt" viewBox="0,0,256,256"><g fill="#fbdb9f" fill-rule="nonzero" stroke="none" stroke-width="1" stroke-linecap="butt" stroke-linejoin="miter" stroke-miterlimit="10" stroke-dasharray="" stroke-dashoffset="0" font-family="none" font-weight="none" font-size="none" text-anchor="none" style="mix-blend-mode: normal"><g transform="translate(0.0864,0.05645) scale(0.5,0.5)"><g transform="translate(0,512) scale(0.1,-0.1)"><path d="M1810,4244c-538,-35 -906,-121 -1252,-295c-300,-151 -493,-350 -543,-560c-121,-516 586,-981 1639,-1075l79,-7l-7,46c-14,95 -7,368 13,492c64,386 243,737 516,1010c102,102 252,218 362,281c45,25 68,44 59,47c-20,8 -214,35 -331,46c-112,11 -451,21 -535,15z"></path><path d="M3297,4160c-516,-81 -957,-400 -1191,-860c-244,-481 -244,-1019 0,-1500c183,-360 507,-647 879,-780c173,-61 282,-81 481,-87c118,-4 211,-1 265,6c646,93 1169,561 1333,1193c41,157 51,235 51,418c0,237 -30,397 -115,613c-166,425 -538,781 -970,927c-165,56 -264,72 -475,75c-110,2 -226,0 -258,-5z"></path><path d="M18,2693c-6,-15 -12,-73 -12,-128c-1,-80 4,-114 22,-167c124,-359 647,-654 1352,-763c177,-28 371,-45 506,-45h92l-63,125c-34,68 -82,183 -105,253l-43,129l-136,12c-657,57 -1214,257 -1533,551l-68,62z"></path><path d="M20,1984c-6,-15 -13,-62 -17,-103c-34,-472 620,-884 1571,-988c290,-31 767,-17 1025,30l64,12l-79,49c-142,87 -310,229 -416,352l-35,41l-239,6c-258,7 -369,16 -564,48c-526,86 -966,269 -1223,509l-77,72z"></path></g></g></g></svg>