<svg width="14" height="14" viewBox="0 0 14 14" fill="none" xmlns="http://www.w3.org/2000/svg">
<g clip-path="url(#clip0_1_169)">
<path d="M7 6.38477C6.17533 6.38477 5.469 6.09077 4.881 5.50277C4.293 4.91477 3.99933 4.20877 4 3.38477C4.00067 2.56077 4.29433 1.8541 4.881 1.26477C5.46767 0.675437 6.174 0.382437 7 0.38577C7.826 0.389104 8.53233 0.682437 9.119 1.26577C9.70567 1.8491 9.99933 2.55577 10 3.38577C10.0007 4.21577 9.707 4.92177 9.119 5.50377C8.531 6.08577 7.82467 6.37877 7 6.38477ZM0 13.6158V11.9698C0 11.5571 0.12 11.1711 0.36 10.8118C0.600667 10.4518 0.924 10.1724 1.33 9.97377C2.274 9.5211 3.21867 9.18177 4.164 8.95577C5.10867 8.7291 6.054 8.61577 7 8.61577C7.946 8.61577 8.89167 8.7291 9.837 8.95577C10.7823 9.18244 11.7263 9.52177 12.669 9.97377C13.0757 10.1724 13.399 10.4518 13.639 10.8118C13.8797 11.1711 14 11.5571 14 11.9698V13.6158H0ZM1 12.6158H13V11.9698C13 11.7484 12.9283 11.5401 12.785 11.3448C12.6423 11.1501 12.4447 10.9854 12.192 10.8508C11.3693 10.4521 10.5207 10.1468 9.646 9.93477C8.77133 9.72277 7.88933 9.61644 7 9.61577C6.11067 9.6151 5.22867 9.7211 4.354 9.93377C3.47933 10.1464 2.63067 10.4518 1.808 10.8498C1.55467 10.9844 1.357 11.1491 1.215 11.3438C1.07167 11.5391 1 11.7478 1 11.9698V12.6158ZM7 5.38577C7.55 5.38577 8.021 5.18977 8.413 4.79777C8.805 4.40577 9.00067 3.93444 9 3.38377C8.99933 2.8331 8.80367 2.36244 8.413 1.97177C8.02233 1.5811 7.55133 1.3851 7 1.38377C6.44867 1.38244 5.978 1.57844 5.588 1.97177C5.198 2.3651 5.002 2.83577 5 3.38377C4.998 3.93177 5.194 4.40277 5.588 4.79677C5.982 5.19077 6.45267 5.38644 7 5.38377" fill="#FBDB9F"/>
</g>
<defs>
<clipPath id="clip0_1_169">
<rect width="14" height="14" fill="white"/>
</clipPath>
</defs>
</svg>
