<svg width="16" height="16" viewBox="0 0 16 16" fill="none" xmlns="http://www.w3.org/2000/svg">
<g clip-path="url(#clip0_1_481)">
<path d="M6.65728 0.615234C5.4623 0.615234 4.29416 0.969587 3.30057 1.63348C2.30698 2.29738 1.53257 3.241 1.07527 4.34501C0.617974 5.44903 0.498324 6.66386 0.731453 7.83588C0.964582 9.0079 1.54002 10.0845 2.385 10.9294C3.22998 11.7744 4.30654 12.3499 5.47856 12.583C6.65058 12.8161 7.86541 12.6965 8.96943 12.2392C10.0734 11.7819 11.0171 11.0075 11.681 10.0139C12.3449 9.02028 12.6992 7.85214 12.6992 6.65716C12.6991 5.05477 12.0625 3.51804 10.9295 2.38499C9.7964 1.25193 8.25967 0.615336 6.65728 0.615234Z" stroke="#FBDB9F" stroke-width="1.23077" stroke-miterlimit="10"/>
<path d="M11.165 11.165L15.3846 15.3847" stroke="#FBDB9F" stroke-width="1.23077" stroke-miterlimit="10" stroke-linecap="round"/>
</g>
<defs>
<clipPath id="clip0_1_481">
<rect width="16" height="16" fill="white"/>
</clipPath>
</defs>
</svg>
