<svg width="17" height="16" viewBox="0 0 17 16" fill="none" xmlns="http://www.w3.org/2000/svg">
<g clip-path="url(#clip0_1_177)">
<path d="M8 12.5H9V8.5H13V7.5H9V3.5H8V7.5H4V8.5H8V12.5ZM2.116 16C1.65533 16 1.271 15.846 0.963 15.538C0.655 15.23 0.500667 14.8453 0.5 14.384V1.616C0.5 1.15533 0.654333 0.771 0.963 0.463C1.27167 0.155 1.656 0.000666667 2.116 0H14.885C15.345 0 15.7293 0.154333 16.038 0.463C16.3467 0.771667 16.5007 1.156 16.5 1.616V14.385C16.5 14.845 16.346 15.2293 16.038 15.538C15.73 15.8467 15.3453 16.0007 14.884 16H2.116ZM2.116 15H14.885C15.0383 15 15.1793 14.936 15.308 14.808C15.4367 14.68 15.5007 14.5387 15.5 14.384V1.616C15.5 1.462 15.436 1.32067 15.308 1.192C15.18 1.06333 15.0387 0.999333 14.884 1H2.116C1.962 1 1.82067 1.064 1.692 1.192C1.56333 1.32 1.49933 1.46133 1.5 1.616V14.385C1.5 14.5383 1.564 14.6793 1.692 14.808C1.82 14.9367 1.961 15.0007 2.115 15" fill="#FBDB9F"/>
</g>
<defs>
<clipPath id="clip0_1_177">
<rect width="16" height="16" fill="white" transform="translate(0.5)"/>
</clipPath>
</defs>
</svg>
