<svg width="21" height="20" viewBox="0 0 21 20" fill="none" xmlns="http://www.w3.org/2000/svg">
<path fill-rule="evenodd" clip-rule="evenodd" d="M9.4998 0.072212C8.0267 0.344462 6.7868 1.25911 6.14945 2.54371C5.75145 3.34591 5.6498 4.00736 5.6498 5.79561V7.19031L4.6873 7.21076C3.74105 7.23086 3.7193 7.23376 3.3998 7.38241C2.92215 7.60461 2.6442 7.88296 2.38995 8.39366L2.1748 8.82591V13.6009V18.3759L2.33675 18.7169C2.5385 19.1416 2.98095 19.5979 3.35835 19.7705C3.50725 19.8387 3.7744 19.9192 3.95195 19.9495C4.1788 19.9882 6.2078 20.0003 10.7748 19.9903L17.2748 19.9759L17.6074 19.8143C18.0499 19.5992 18.4028 19.2373 18.6379 18.7574L18.8248 18.3759V13.6009V8.82591L18.632 8.43116C18.3938 7.94361 18.0742 7.61826 17.6156 7.39631L17.2748 7.23141L16.3123 7.21086L15.3498 7.19031V5.75801C15.3498 4.28211 15.2988 3.77706 15.0812 3.10091C14.9387 2.65816 14.601 2.00841 14.4065 1.80301C14.3616 1.75556 14.2437 1.61716 14.1446 1.49551C13.6199 0.851412 12.4753 0.240612 11.4748 0.070812C10.9918 -0.011188 9.9469 -0.010438 9.4998 0.072212ZM9.9523 2.02736C9.5147 2.10651 9.2771 2.20326 8.8949 2.45786C7.74125 3.22636 7.36225 4.80291 8.05215 5.96366C8.2908 6.36516 8.76775 6.72466 9.3498 6.94181C9.6217 7.04321 9.79485 7.06711 10.4099 7.08806L11.1449 7.11316L11.1181 7.26951C11.0711 7.54436 10.8006 8.17446 10.6163 8.43831L10.5377 8.55076L10.7313 8.48051C11.37 8.24876 11.9508 7.86076 12.3902 7.37221C12.5347 7.21161 12.6888 7.01176 12.7328 6.92806C13.1763 6.08471 13.2666 5.72546 13.2675 4.80091C13.2682 4.13621 13.2574 4.04886 13.1384 3.75091C12.9175 3.19791 12.8893 3.15551 12.4567 2.72441C12.1014 2.37041 11.6046 2.12781 11.0308 2.02806C10.5122 1.93796 10.4465 1.93791 9.9523 2.02736ZM10.0248 9.53171C9.7248 9.60421 9.32005 9.77531 9.2905 9.84226C9.28185 9.86176 9.2113 9.92686 9.1337 9.98686C8.9277 10.1462 8.67905 10.4897 8.54345 10.8024C8.44365 11.0324 8.4253 11.1555 8.42795 11.5759C8.4308 12.0241 8.44685 12.1096 8.58265 12.4009C8.7668 12.796 9.13045 13.2093 9.45895 13.3969C9.71615 13.5438 9.7144 13.5968 9.4498 13.6762C9.2258 13.7435 8.6502 14.1615 8.38855 14.4469C8.097 14.7649 7.82125 15.3164 7.7435 15.737C7.71455 15.8937 7.6985 16.3377 7.70785 16.7239C7.72355 17.3739 7.7337 17.4378 7.8452 17.5864C8.07075 17.887 8.1853 17.9009 10.4366 17.9009C11.7634 17.9009 12.5319 17.8817 12.6784 17.8448C12.9426 17.7783 13.1224 17.5874 13.2045 17.2862C13.2818 17.0026 13.2308 15.9194 13.1204 15.5009C12.9116 14.7092 12.3364 14.0426 11.5573 13.6893L11.229 13.5405L11.4941 13.4101C11.8327 13.2435 12.2216 12.8198 12.4205 12.4009C12.561 12.1051 12.5748 12.0311 12.5748 11.5759C12.5748 11.0184 12.4785 10.7124 12.1812 10.3253C11.8384 9.87891 11.4875 9.65156 10.9498 9.52741C10.5572 9.43676 10.4151 9.43746 10.0248 9.53171Z" fill="#FBDB9F"/>
</svg>
