<svg width="18" height="16" viewBox="0 0 18 16" fill="none" xmlns="http://www.w3.org/2000/svg">
    <path d="M8.99929 15.273C13.0159 15.273 16.272 12.0169 16.272 8.00027C16.272 3.98365 13.0159 0.727539 8.99929 0.727539C4.98267 0.727539 1.72656 3.98365 1.72656 8.00027C1.72656 12.0169 4.98267 15.273 8.99929 15.273Z"
          stroke="#FBDB9F" stroke-width="1.09091"/>
    <path d="M8.9992 3.63672V12.364M11.181 6.18217C11.181 5.17854 10.2043 4.36399 8.9992 4.36399C7.79411 4.36399 6.81738 5.17854 6.81738 6.18217C6.81738 7.18581 7.79411 8.00036 8.9992 8.00036C10.2043 8.00036 11.181 8.8149 11.181 9.81854C11.181 10.8222 10.2043 11.6367 8.9992 11.6367C7.79411 11.6367 6.81738 10.8222 6.81738 9.81854"
          stroke="#FBDB9F" stroke-width="1.09091" stroke-linecap="round"/>
</svg>
