<svg width="17" height="16" viewBox="0 0 17 16" fill="none" xmlns="http://www.w3.org/2000/svg">
    <g clip-path="url(#clip0_2_808)">
        <path d="M8.5 0C7.45385 0 6.65385 0.8 6.65385 1.84615V5.53846C6.65385 6.58462 7.45385 7.38462 8.5 7.38462H12.1923L14.6538 9.84615V7.38462C15.7 7.38462 16.5 6.58462 16.5 5.53846V1.84615C16.5 0.8 15.7 0 14.6538 0H8.5ZM11.0772 1.84615H12.1345L13.1732 5.53846H12.2502L11.9997 4.61538H11.0766L10.8465 5.53846H10.0385L11.0772 1.84615ZM11.5769 2.46154C11.5154 2.70769 11.4465 3.008 11.3843 3.19262L11.212 4H11.9425L11.7689 3.192C11.6465 3.008 11.5769 2.70769 11.5769 2.46154ZM2.34615 6.15385C1.3 6.15385 0.5 6.95385 0.5 8V11.6923C0.5 12.7385 1.3 13.5385 2.34615 13.5385V16L4.80769 13.5385H8.5C9.54615 13.5385 10.3462 12.7385 10.3462 11.6923V8H8.5C7.33077 8 6.404 7.2 6.09631 6.15385H2.34615ZM5.17323 7.94215C6.21938 7.94215 6.71169 8.80369 6.71169 9.78831C6.71169 10.6498 6.41569 11.1963 5.92338 11.4425C6.16954 11.5655 6.46123 11.6308 6.76892 11.6923L6.53877 12.3077C6.108 12.1846 5.66123 11.9926 5.23046 11.8074C5.16892 11.7458 5.06123 11.7502 4.99969 11.7502C4.26123 11.6886 3.57692 11.0769 3.57692 9.84615C3.57692 8.8 4.18862 7.94215 5.17323 7.94215ZM5.17323 8.61539C4.68092 8.61539 4.44215 9.16923 4.44215 9.84615C4.44215 10.5846 4.68092 11.0769 5.17323 11.0769C5.66554 11.0769 5.92277 10.5231 5.92277 9.84615C5.92277 9.16923 5.66554 8.61539 5.17323 8.61539Z"
              fill="#FBDB9F"/>
    </g>
    <defs>
        <clipPath id="clip0_2_808">
            <rect width="16" height="16" fill="white" transform="translate(0.5)"/>
        </clipPath>
    </defs>
</svg>
