<svg width="16" height="16" viewBox="0 0 16 16" fill="none" xmlns="http://www.w3.org/2000/svg">
    <g clip-path="url(#clip0_2_822)">
        <path d="M1.77778 1.77778H7.11111C7.6 1.77778 8 1.37778 8 0.888889C8 0.4 7.6 0 7.11111 0H1.77778C0.8 0 0 0.8 0 1.77778V14.2222C0 15.2 0.8 16 1.77778 16H7.11111C7.6 16 8 15.6 8 15.1111C8 14.6222 7.6 14.2222 7.11111 14.2222H1.77778V1.77778Z"
              fill="#FBDB9F"/>
        <path d="M15.6889 7.68844L13.2089 5.20844C13.1471 5.14493 13.0677 5.10131 12.981 5.08316C12.8942 5.06502 12.804 5.07317 12.7219 5.10658C12.6399 5.13999 12.5696 5.19714 12.5202 5.27071C12.4707 5.34427 12.4444 5.43092 12.4445 5.51955V7.11066H6.22226C5.73337 7.11066 5.33337 7.51066 5.33337 7.99955C5.33337 8.48844 5.73337 8.88844 6.22226 8.88844H12.4445V10.4795C12.4445 10.8795 12.9245 11.0751 13.2 10.7907L15.68 8.31066C15.8578 8.14177 15.8578 7.85732 15.6889 7.68844Z"
              fill="#FBDB9F"/>
    </g>
    <defs>
        <clipPath id="clip0_2_822">
            <rect width="16" height="16" fill="white"/>
        </clipPath>
    </defs>
</svg>
