<svg width="16" height="16" viewBox="0 0 16 16" fill="none" xmlns="http://www.w3.org/2000/svg">
    <g clip-path="url(#clip0_2_800)">
        <path d="M8.4688 0.4688C8.16881 0.168721 7.76191 9.06198e-05 7.3376 0H1.6C1.17565 0 0.768687 0.168571 0.468629 0.468629C0.168571 0.768687 0 1.17565 0 1.6V7.3376C9.06198e-05 7.76191 0.168721 8.16881 0.4688 8.4688L6.8688 14.8688C7.16884 15.1688 7.57574 15.3373 8 15.3373C8.42426 15.3373 8.83116 15.1688 9.1312 14.8688L14.8688 9.1312C15.1688 8.83116 15.3373 8.42426 15.3373 8C15.3373 7.57574 15.1688 7.16884 14.8688 6.8688L8.4688 0.4688ZM4 5.6C3.57555 5.59989 3.16852 5.43118 2.86846 5.13097C2.56841 4.83076 2.39989 4.42365 2.4 3.9992C2.40011 3.57475 2.56882 3.16772 2.86903 2.86766C3.16924 2.56761 3.57635 2.39909 4.0008 2.3992C4.42525 2.39931 4.83228 2.56802 5.13234 2.86823C5.43239 3.16844 5.60091 3.57555 5.6008 4C5.60069 4.42445 5.43198 4.83148 5.13177 5.13154C4.83156 5.4316 4.42445 5.60011 4 5.6Z"
              fill="#FBDB9F"/>
    </g>
    <defs>
        <clipPath id="clip0_2_800">
            <rect width="16" height="16" fill="white"/>
        </clipPath>
    </defs>
</svg>
