<svg width="17" height="16" viewBox="0 0 17 16" fill="none" xmlns="http://www.w3.org/2000/svg">
    <g clip-path="url(#clip0_2_796)">
        <path d="M8.5 7.29695C7.55752 7.29695 6.75029 6.96095 6.07829 6.28895C5.40629 5.61695 5.07067 4.81009 5.07143 3.86838C5.07219 2.92666 5.40781 2.11905 6.07829 1.44552C6.74876 0.771997 7.556 0.437141 8.5 0.44095C9.444 0.44476 10.2512 0.779997 10.9217 1.44666C11.5922 2.11333 11.9278 2.92095 11.9286 3.86952C11.9293 4.81809 11.5937 5.62495 10.9217 6.29009C10.2497 6.95524 9.44248 7.29009 8.5 7.29695ZM0.5 15.5609V13.6798C0.5 13.2082 0.637143 12.767 0.911429 12.3564C1.18648 11.945 1.556 11.6257 2.02 11.3987C3.09886 10.8813 4.17848 10.4935 5.25886 10.2352C6.33848 9.97619 7.41886 9.84666 8.5 9.84666C9.58114 9.84666 10.6619 9.97619 11.7423 10.2352C12.8227 10.4943 13.9015 10.8821 14.9789 11.3987C15.4436 11.6257 15.8131 11.945 16.0874 12.3564C16.3625 12.767 16.5 13.2082 16.5 13.6798V15.5609H0.5Z"
              fill="#FBDB9F"/>
    </g>
    <defs>
        <clipPath id="clip0_2_796">
            <rect width="16" height="16" fill="white" transform="translate(0.5)"/>
        </clipPath>
    </defs>
</svg>
