<svg width="17" height="16" viewBox="0 0 17 16" fill="none" xmlns="http://www.w3.org/2000/svg">
    <g clip-path="url(#clip0_2_804)">
        <path d="M1.93644 14.2223C1.52696 14.2223 1.18533 14.0854 0.911556 13.8116C0.637778 13.5378 0.500593 13.1959 0.5 12.7858V3.21428C0.5 2.8048 0.637185 2.46317 0.911556 2.18939C1.18593 1.91561 1.52726 1.77842 1.93556 1.77783H5.76667C5.95807 1.77783 6.14415 1.81635 6.32489 1.89339C6.50563 1.97161 6.6603 2.07502 6.78889 2.20361L8.14089 3.55561H15.0644C15.4733 3.55561 15.815 3.69279 16.0893 3.96717C16.3637 4.24154 16.5006 4.58317 16.5 4.99205V12.7867C16.5 13.1956 16.3631 13.5372 16.0893 13.8116C15.8156 14.086 15.4739 14.2229 15.0644 14.2223H1.93644ZM4.78889 9.99294L3.85378 9.05872C3.76726 8.97161 3.66533 8.92628 3.548 8.92272C3.43067 8.91917 3.32281 8.96598 3.22444 9.06317C3.12963 9.16154 3.08163 9.26642 3.08044 9.37783C3.07867 9.48983 3.12696 9.59472 3.22533 9.6925L4.28667 10.7538C4.43007 10.8978 4.59748 10.9698 4.78889 10.9698C4.9803 10.9698 5.148 10.8978 5.292 10.7538L8.24133 7.80272C8.32844 7.71679 8.37467 7.61517 8.38 7.49783C8.38533 7.3805 8.33911 7.27265 8.24133 7.17428C8.14356 7.07591 8.03807 7.02702 7.92489 7.02761C7.81111 7.02761 7.70533 7.0765 7.60756 7.17428L4.78889 9.99294ZM12.0556 8.61072L10.9311 7.48539C10.8481 7.40242 10.7489 7.36094 10.6333 7.36094C10.5178 7.36094 10.4188 7.40242 10.3364 7.48539C10.2541 7.56835 10.2123 7.67057 10.2111 7.79205C10.2099 7.91354 10.2514 8.01546 10.3356 8.09783L11.444 9.22228L10.3187 10.3476C10.2357 10.4306 10.1972 10.5295 10.2031 10.6445C10.2084 10.7595 10.2529 10.8587 10.3364 10.9423C10.4194 11.0252 10.5213 11.0667 10.6422 11.0667C10.7631 11.0667 10.865 11.0252 10.948 10.9423L12.0556 9.83383L13.1809 10.9592C13.2639 11.0421 13.3658 11.0806 13.4867 11.0747C13.6076 11.0694 13.7095 11.0249 13.7924 10.9414C13.8754 10.8578 13.9169 10.7562 13.9169 10.6365C13.9169 10.5156 13.8754 10.4134 13.7924 10.3298L12.668 9.22228L13.7924 8.09783C13.8754 8.01487 13.9169 7.91294 13.9169 7.79205C13.9169 7.67116 13.8754 7.56894 13.7924 7.48539C13.7095 7.40183 13.6073 7.36035 13.4858 7.36094C13.3643 7.36154 13.2624 7.40302 13.18 7.48539L12.0556 8.61072Z"
              fill="#FBDB9F"/>
    </g>
    <defs>
        <clipPath id="clip0_2_804">
            <rect width="16" height="16" fill="white" transform="translate(0.5)"/>
        </clipPath>
    </defs>
</svg>
