<svg width="16" height="16" viewBox="0 0 16 16" fill="none" xmlns="http://www.w3.org/2000/svg">
    <g filter="url(#filter0_d_2_813)">
        <path d="M8.00005 16L7.80005 13.6H7.60005C5.70672 13.6 4.10005 12.94 2.78005 11.62C1.46005 10.3 0.800049 8.69333 0.800049 6.8C0.800049 4.90667 1.46005 3.3 2.78005 1.98C4.10005 0.66 5.70672 0 7.60005 0C8.54672 0 9.43018 0.176533 10.2504 0.5296C11.0707 0.882667 11.7907 1.36933 12.4104 1.9896C13.0302 2.60987 13.5166 3.32987 13.8696 4.1496C14.2227 4.96933 14.3995 5.8528 14.4 6.8C14.4 7.8 14.2368 8.76 13.9104 9.68C13.584 10.6 13.1371 11.4533 12.5696 12.24C12.0022 13.0267 11.3288 13.74 10.5496 14.38C9.77045 15.02 8.92058 15.56 8.00005 16ZM7.58005 11.18C7.80672 11.18 8.00005 11.1 8.16005 10.94C8.32005 10.78 8.40005 10.5867 8.40005 10.36C8.40005 10.1333 8.32005 9.94 8.16005 9.78C8.00005 9.62 7.80672 9.54 7.58005 9.54C7.35338 9.54 7.16005 9.62 7.00005 9.78C6.84005 9.94 6.76005 10.1333 6.76005 10.36C6.76005 10.5867 6.84005 10.78 7.00005 10.94C7.16005 11.1 7.35338 11.18 7.58005 11.18ZM7.00005 8.64H8.20005C8.20005 8.24 8.24005 7.96 8.32005 7.8C8.40005 7.64 8.65338 7.34667 9.08005 6.92C9.32005 6.68 9.52005 6.42 9.68005 6.14C9.84005 5.86 9.92005 5.56 9.92005 5.24C9.92005 4.56 9.69018 4.04987 9.23045 3.7096C8.77072 3.36933 8.22725 3.19947 7.60005 3.2C7.01338 3.2 6.52005 3.36347 6.12005 3.6904C5.72005 4.01733 5.44005 4.41387 5.28005 4.88L6.40005 5.32C6.46672 5.09333 6.59338 4.87013 6.78005 4.6504C6.96672 4.43067 7.24005 4.32053 7.60005 4.32C7.96005 4.31947 8.23018 4.41947 8.41045 4.62C8.59072 4.82053 8.68058 5.04053 8.68005 5.28C8.68005 5.50667 8.61338 5.71013 8.48005 5.8904C8.34672 6.07067 8.18672 6.25387 8.00005 6.44C7.53338 6.84 7.25018 7.1568 7.15045 7.3904C7.05072 7.624 7.00058 8.04053 7.00005 8.64Z"
              fill="#FBDB9F"/>
    </g>
    <defs>
        <filter id="filter0_d_2_813" x="-3.19995" y="0" width="21.6" height="24" filterUnits="userSpaceOnUse"
                color-interpolation-filters="sRGB">
            <feFlood flood-opacity="0" result="BackgroundImageFix"/>
            <feColorMatrix in="SourceAlpha" type="matrix" values="0 0 0 0 0 0 0 0 0 0 0 0 0 0 0 0 0 0 127 0"
                           result="hardAlpha"/>
            <feOffset dy="4"/>
            <feGaussianBlur stdDeviation="2"/>
            <feComposite in2="hardAlpha" operator="out"/>
            <feColorMatrix type="matrix" values="0 0 0 0 0 0 0 0 0 0 0 0 0 0 0 0 0 0 0.25 0"/>
            <feBlend mode="normal" in2="BackgroundImageFix" result="effect1_dropShadow_2_813"/>
            <feBlend mode="normal" in="SourceGraphic" in2="effect1_dropShadow_2_813" result="shape"/>
        </filter>
    </defs>
</svg>
