<svg width="12" height="12" viewBox="0 0 12 12" fill="none" xmlns="http://www.w3.org/2000/svg">
    <g clip-path="url(#clip0_1_934)">
        <path d="M5.625 9.375H6.375V6.375H9.375V5.625H6.375V2.625H5.625V5.625H2.625V6.375H5.625V9.375ZM1.212 12C0.8665 12 0.57825 11.8845 0.34725 11.6535C0.11625 11.4225 0.0005 11.134 0 10.788V1.212C0 0.8665 0.11575 0.57825 0.34725 0.34725C0.57875 0.11625 0.867 0.0005 1.212 0H10.7887C11.1337 0 11.422 0.11575 11.6535 0.34725C11.885 0.57875 12.0005 0.867 12 1.212V10.7887C12 11.1337 11.8845 11.422 11.6535 11.6535C11.4225 11.885 11.134 12.0005 10.788 12H1.212ZM1.212 11.25H10.7887C10.9038 11.25 11.0095 11.202 11.106 11.106C11.2025 11.01 11.2505 10.904 11.25 10.788V1.212C11.25 1.0965 11.202 0.9905 11.106 0.894C11.01 0.7975 10.904 0.7495 10.788 0.75H1.212C1.0965 0.75 0.9905 0.798 0.894 0.894C0.7975 0.99 0.7495 1.096 0.75 1.212V10.7887C0.75 10.9038 0.798 11.0095 0.894 11.106C0.99 11.2025 1.09575 11.2505 1.21125 11.25"
              fill="#FBDB9F"/>
    </g>
    <defs>
        <clipPath id="clip0_1_934">
            <rect width="12" height="12" fill="white"/>
        </clipPath>
    </defs>
</svg>
